<?xml version="1.0" encoding="UTF-8"?>
<svg id="Layer_1" data-name="Layer 1" xmlns="http://www.w3.org/2000/svg" viewBox="0 0 231.54 335.82">
  <defs>
    <style>
      .cls-1 {
        fill: #fff;
        stroke-width: 0px;
      }
    </style>
  </defs>
  <path class="cls-1" d="m121.98,94.87c13.01,54.17,25.2,110.53,36.57,165.1,0,0-5.38-2.69-5.38-2.69,6.86-3.39,22.55-10.74,28.63-15.09,10.51-6.65,19.9-14.84,28.2-24.1,3.55-3.72,6.16-7.67,8.33-12.56,2.01-4.48,3.99-9.4,4.55-14.14.52-7.92.42-16.81-4.72-23.16-4.22-5.64-8.64-9.71-15.2-11.76-13.29-4.86-27.31-4.22-41.12-1.26-14.11,2.69-27.49,7.74-40.28,14.33-12.93,6.52-25.49,13.87-37.67,21.75-18.4,11.74-37.25,23.34-55.89,34.67,17.61-12.88,35.76-25.5,53.5-38.19,21.15-14.69,43.08-29.17,68-36.92,18.11-5.36,37.7-8.51,56.1-2.09,5.84,1.81,11.37,5.28,15.38,9.9,4.2,4.53,7.94,9.71,9.25,15.73,1.02,4.02,1.31,8.01,1.32,11.88.05,3.92-.25,8.34-1.38,11.98-2.25,7.66-5.35,14.72-10.12,21.15-5.47,6.56-11.42,12.59-17.97,18.09-7.89,6.8-16.47,12.37-25.66,17.31-3.13,1.46-21.68,10.18-24.42,11.46-.53-2.76-4.18-22.29-4.81-25.56-8.75-47.86-17.73-97.77-25.19-145.81h0Z"/>
  <path class="cls-1" d="m88.95,335.82C57.64,224.78,27.52,112.09,0,0c0,0,24.88,40.38,24.88,40.38,22.09,36.12,44.68,74.29,65.57,111.07,18.46,32.57,36.74,65.96,53.77,99.35,2.42,4.81,4.86,9.62,7.21,14.48-5.44-7.41-13.28-18.73-18.62-26.43C90.42,176.92,50.47,112.55,12.28,47.95c0,0,13.45-5.51,13.45-5.51,4.12,17.53,8.63,37.14,12.64,54.82,17.45,79.04,34.7,159.17,50.59,238.56h0Z"/>
</svg>